<svg xmlns="http://www.w3.org/2000/svg" xmlns:xlink="http://www.w3.org/1999/xlink" viewBox="0,0,256,256" width="32px" height="32px"><g fill="#cb444b" fill-rule="nonzero" stroke="none" stroke-width="1" stroke-linecap="butt" stroke-linejoin="miter" stroke-miterlimit="10" stroke-dasharray="" stroke-dashoffset="0" font-family="none" font-weight="none" font-size="none" text-anchor="none" style="mix-blend-mode: normal"><g transform="scale(8,8)"><path d="M16,3c-7.16797,0 -13,5.83203 -13,13c0,7.16797 5.83203,13 13,13c7.16797,0 13,-5.83203 13,-13c0,-7.16797 -5.83203,-13 -13,-13zM16,5c4.94531,0 9.10938,3.23828 10.5,7.71875c-2.51562,-2.88672 -6.28906,-4.71875 -10.5,-4.71875c-4.21094,0 -7.98437,1.83203 -10.5,4.71875c1.39063,-4.48047 5.55469,-7.71875 10.5,-7.71875zM16,10c4.52344,0 8.37109,2.46484 10.3125,6c-1.94141,3.53516 -5.78906,6 -10.3125,6c-4.52344,0 -8.37109,-2.46484 -10.3125,-6c1.94141,-3.53516 5.78906,-6 10.3125,-6zM16,11c-2.75,0 -5,2.25 -5,5c0,2.75 2.25,5 5,5c2.75,0 5,-2.25 5,-5c0,-2.75 -2.25,-5 -5,-5zM16,13c1.66797,0 3,1.33203 3,3c0,1.66797 -1.33203,3 -3,3c-1.66797,0 -3,-1.33203 -3,-3c0,-1.66797 1.33203,-3 3,-3zM5.5,19.28125c2.51563,2.88672 6.28906,4.71875 10.5,4.71875c4.21094,0 7.98438,-1.83203 10.5,-4.71875c-1.39062,4.48047 -5.55469,7.71875 -10.5,7.71875c-4.94531,0 -9.10937,-3.23828 -10.5,-7.71875z"></path></g></g></svg>